<mxfile host="app.diagrams.net" modified="2024-05-21T11:13:50.725Z" agent="Mozilla/5.0 (Macintosh; Intel Mac OS X 10_15_7) AppleWebKit/605.1.15 (KHTML, like Gecko) Version/17.5 Safari/605.1.15" etag="gbL9AtoJQkpLlLVl7FYL" version="24.4.4" type="google">
  <diagram name="PÃ gina-1" id="C4M9PUVHXVZwdYtfMSyS">
    <mxGraphModel grid="1" page="1" gridSize="10" guides="1" tooltips="1" connect="1" arrows="1" fold="1" pageScale="1" pageWidth="827" pageHeight="1169" math="0" shadow="0">
      <root>
        <mxCell id="0" />
        <mxCell id="1" parent="0" />
        <mxCell id="5yqSZOtJbwfrxuhBmMWn-2" value="&lt;b&gt;&lt;font style=&quot;font-size: 14px;&quot;&gt;Train Data&lt;/font&gt;&lt;/b&gt;" style="shape=cylinder;whiteSpace=wrap;html=1;boundedLbl=1;backgroundOutline=1;fillColor=#99CCFF;" vertex="1" parent="1">
          <mxGeometry x="30" y="220" width="60" height="80" as="geometry" />
        </mxCell>
        <mxCell id="5yqSZOtJbwfrxuhBmMWn-5" value="Random Forest Classifier" style="shape=note;whiteSpace=wrap;html=1;backgroundOutline=1;darkOpacity=0.05;fillColor=#FFCCE6;" vertex="1" parent="1">
          <mxGeometry x="140" y="210" width="80" height="100" as="geometry" />
        </mxCell>
        <mxCell id="5yqSZOtJbwfrxuhBmMWn-8" value="" style="shape=singleArrow;whiteSpace=wrap;html=1;" vertex="1" parent="1">
          <mxGeometry x="100" y="250" width="30" height="20" as="geometry" />
        </mxCell>
        <mxCell id="5yqSZOtJbwfrxuhBmMWn-48" value="" style="shape=table;startSize=0;container=1;collapsible=0;childLayout=tableLayout;" vertex="1" parent="1">
          <mxGeometry x="270" y="205" width="130" height="110" as="geometry" />
        </mxCell>
        <mxCell id="5yqSZOtJbwfrxuhBmMWn-49" value="" style="shape=tableRow;horizontal=0;startSize=0;swimlaneHead=0;swimlaneBody=0;strokeColor=inherit;top=0;left=0;bottom=0;right=0;collapsible=0;dropTarget=0;fillColor=none;points=[[0,0.5],[1,0.5]];portConstraint=eastwest;" vertex="1" parent="5yqSZOtJbwfrxuhBmMWn-48">
          <mxGeometry width="130" height="20" as="geometry" />
        </mxCell>
        <mxCell id="5yqSZOtJbwfrxuhBmMWn-50" value="Feature" style="shape=partialRectangle;html=1;whiteSpace=wrap;connectable=0;strokeColor=inherit;overflow=hidden;fillColor=none;top=0;left=0;bottom=0;right=0;pointerEvents=1;" vertex="1" parent="5yqSZOtJbwfrxuhBmMWn-49">
          <mxGeometry width="60" height="20" as="geometry">
            <mxRectangle width="60" height="20" as="alternateBounds" />
          </mxGeometry>
        </mxCell>
        <mxCell id="5yqSZOtJbwfrxuhBmMWn-51" value="Importance" style="shape=partialRectangle;html=1;whiteSpace=wrap;connectable=0;strokeColor=inherit;overflow=hidden;fillColor=none;top=0;left=0;bottom=0;right=0;pointerEvents=1;" vertex="1" parent="5yqSZOtJbwfrxuhBmMWn-49">
          <mxGeometry x="60" width="70" height="20" as="geometry">
            <mxRectangle width="70" height="20" as="alternateBounds" />
          </mxGeometry>
        </mxCell>
        <mxCell id="5yqSZOtJbwfrxuhBmMWn-52" value="" style="shape=tableRow;horizontal=0;startSize=0;swimlaneHead=0;swimlaneBody=0;strokeColor=inherit;top=0;left=0;bottom=0;right=0;collapsible=0;dropTarget=0;fillColor=none;points=[[0,0.5],[1,0.5]];portConstraint=eastwest;" vertex="1" parent="5yqSZOtJbwfrxuhBmMWn-48">
          <mxGeometry y="20" width="130" height="30" as="geometry" />
        </mxCell>
        <mxCell id="5yqSZOtJbwfrxuhBmMWn-53" value="size" style="shape=partialRectangle;html=1;whiteSpace=wrap;connectable=0;strokeColor=inherit;overflow=hidden;fillColor=none;top=0;left=0;bottom=0;right=0;pointerEvents=1;" vertex="1" parent="5yqSZOtJbwfrxuhBmMWn-52">
          <mxGeometry width="60" height="30" as="geometry">
            <mxRectangle width="60" height="30" as="alternateBounds" />
          </mxGeometry>
        </mxCell>
        <mxCell id="5yqSZOtJbwfrxuhBmMWn-54" value="0.31" style="shape=partialRectangle;html=1;whiteSpace=wrap;connectable=0;strokeColor=inherit;overflow=hidden;fillColor=none;top=0;left=0;bottom=0;right=0;pointerEvents=1;" vertex="1" parent="5yqSZOtJbwfrxuhBmMWn-52">
          <mxGeometry x="60" width="70" height="30" as="geometry">
            <mxRectangle width="70" height="30" as="alternateBounds" />
          </mxGeometry>
        </mxCell>
        <mxCell id="5yqSZOtJbwfrxuhBmMWn-55" value="" style="shape=tableRow;horizontal=0;startSize=0;swimlaneHead=0;swimlaneBody=0;strokeColor=inherit;top=0;left=0;bottom=0;right=0;collapsible=0;dropTarget=0;fillColor=none;points=[[0,0.5],[1,0.5]];portConstraint=eastwest;" vertex="1" parent="5yqSZOtJbwfrxuhBmMWn-48">
          <mxGeometry y="50" width="130" height="30" as="geometry" />
        </mxCell>
        <mxCell id="5yqSZOtJbwfrxuhBmMWn-56" value="bathroom" style="shape=partialRectangle;html=1;whiteSpace=wrap;connectable=0;strokeColor=inherit;overflow=hidden;fillColor=none;top=0;left=0;bottom=0;right=0;pointerEvents=1;" vertex="1" parent="5yqSZOtJbwfrxuhBmMWn-55">
          <mxGeometry width="60" height="30" as="geometry">
            <mxRectangle width="60" height="30" as="alternateBounds" />
          </mxGeometry>
        </mxCell>
        <mxCell id="5yqSZOtJbwfrxuhBmMWn-57" value="0.09" style="shape=partialRectangle;html=1;whiteSpace=wrap;connectable=0;strokeColor=inherit;overflow=hidden;fillColor=none;top=0;left=0;bottom=0;right=0;pointerEvents=1;" vertex="1" parent="5yqSZOtJbwfrxuhBmMWn-55">
          <mxGeometry x="60" width="70" height="30" as="geometry">
            <mxRectangle width="70" height="30" as="alternateBounds" />
          </mxGeometry>
        </mxCell>
        <mxCell id="5yqSZOtJbwfrxuhBmMWn-58" value="" style="shape=tableRow;horizontal=0;startSize=0;swimlaneHead=0;swimlaneBody=0;strokeColor=inherit;top=0;left=0;bottom=0;right=0;collapsible=0;dropTarget=0;fillColor=none;points=[[0,0.5],[1,0.5]];portConstraint=eastwest;" vertex="1" parent="5yqSZOtJbwfrxuhBmMWn-48">
          <mxGeometry y="80" width="130" height="30" as="geometry" />
        </mxCell>
        <mxCell id="5yqSZOtJbwfrxuhBmMWn-59" value="..." style="shape=partialRectangle;html=1;whiteSpace=wrap;connectable=0;strokeColor=inherit;overflow=hidden;fillColor=none;top=0;left=0;bottom=0;right=0;pointerEvents=1;" vertex="1" parent="5yqSZOtJbwfrxuhBmMWn-58">
          <mxGeometry width="60" height="30" as="geometry">
            <mxRectangle width="60" height="30" as="alternateBounds" />
          </mxGeometry>
        </mxCell>
        <mxCell id="5yqSZOtJbwfrxuhBmMWn-60" value="..." style="shape=partialRectangle;html=1;whiteSpace=wrap;connectable=0;strokeColor=inherit;overflow=hidden;fillColor=none;top=0;left=0;bottom=0;right=0;pointerEvents=1;" vertex="1" parent="5yqSZOtJbwfrxuhBmMWn-58">
          <mxGeometry x="60" width="70" height="30" as="geometry">
            <mxRectangle width="70" height="30" as="alternateBounds" />
          </mxGeometry>
        </mxCell>
        <mxCell id="5yqSZOtJbwfrxuhBmMWn-61" value="" style="shape=singleArrow;whiteSpace=wrap;html=1;" vertex="1" parent="1">
          <mxGeometry x="225" y="250" width="35" height="20" as="geometry" />
        </mxCell>
        <mxCell id="heHmUau1WtLQ7vbN5ZSC-3" style="edgeStyle=orthogonalEdgeStyle;rounded=0;orthogonalLoop=1;jettySize=auto;html=1;shape=flexArrow;width=6;endSize=3;endWidth=14;" edge="1" parent="1">
          <mxGeometry relative="1" as="geometry">
            <mxPoint x="600" y="370" as="sourcePoint" />
            <mxPoint x="540" y="310" as="targetPoint" />
            <Array as="points">
              <mxPoint x="590" y="370" />
              <mxPoint x="540" y="370" />
            </Array>
          </mxGeometry>
        </mxCell>
        <mxCell id="phGdcPVQWKrGuyPVNNh_-8" value="include next feature" style="edgeLabel;html=1;align=center;verticalAlign=middle;resizable=0;points=[];" connectable="0" vertex="1" parent="heHmUau1WtLQ7vbN5ZSC-3">
          <mxGeometry x="0.5402" y="-2" relative="1" as="geometry">
            <mxPoint x="-2" y="7" as="offset" />
          </mxGeometry>
        </mxCell>
        <mxCell id="5yqSZOtJbwfrxuhBmMWn-62" value="Random Forest Classifier" style="shape=note;whiteSpace=wrap;html=1;backgroundOutline=1;darkOpacity=0.05;fillColor=#FFCCE6;align=center;" vertex="1" parent="1">
          <mxGeometry x="630" y="210" width="78" height="100" as="geometry" />
        </mxCell>
        <mxCell id="5yqSZOtJbwfrxuhBmMWn-63" value="" style="shape=singleArrow;whiteSpace=wrap;html=1;rotation=0;arrowWidth=0.3;arrowSize=0.1;" vertex="1" parent="1">
          <mxGeometry x="410" y="250" width="90" height="20" as="geometry" />
        </mxCell>
        <mxCell id="5yqSZOtJbwfrxuhBmMWn-68" value="&lt;b&gt;&lt;font style=&quot;font-size: 14px;&quot;&gt;Train Subset&lt;/font&gt;&lt;/b&gt;" style="shape=cylinder;whiteSpace=wrap;html=1;boundedLbl=1;backgroundOutline=1;fillColor=#99CCFF;" vertex="1" parent="1">
          <mxGeometry x="510" y="220" width="60" height="80" as="geometry" />
        </mxCell>
        <mxCell id="5yqSZOtJbwfrxuhBmMWn-69" value="take 1st feature" style="text;html=1;align=center;verticalAlign=middle;whiteSpace=wrap;rounded=0;" vertex="1" parent="1">
          <mxGeometry x="407.5" y="220" width="92.5" height="30" as="geometry" />
        </mxCell>
        <mxCell id="heHmUau1WtLQ7vbN5ZSC-5" value="" style="shape=singleArrow;whiteSpace=wrap;html=1;rotation=-180;arrowWidth=0.3166666666666572;arrowSize=0.09166666666666742;" vertex="1" parent="1">
          <mxGeometry x="500" y="385" width="100" height="20" as="geometry" />
        </mxCell>
        <mxCell id="heHmUau1WtLQ7vbN5ZSC-6" value="&lt;b&gt;&lt;font style=&quot;font-size: 14px;&quot;&gt;Best Features&lt;/font&gt;&lt;/b&gt;" style="rounded=0;whiteSpace=wrap;html=1;fillColor=#99FF99;" vertex="1" parent="1">
          <mxGeometry x="192.5" y="377.5" width="100" height="35" as="geometry" />
        </mxCell>
        <mxCell id="heHmUau1WtLQ7vbN5ZSC-9" value="&lt;span style=&quot;&quot;&gt;Best f1_weighted score&lt;/span&gt;" style="rounded=0;whiteSpace=wrap;html=1;fillColor=#FFFFFF;align=center;" vertex="1" parent="1">
          <mxGeometry x="350" y="380" width="140" height="30" as="geometry" />
        </mxCell>
        <mxCell id="heHmUau1WtLQ7vbN5ZSC-10" value="" style="shape=singleArrow;whiteSpace=wrap;html=1;rotation=-180;" vertex="1" parent="1">
          <mxGeometry x="300" y="385" width="40" height="20" as="geometry" />
        </mxCell>
        <mxCell id="phGdcPVQWKrGuyPVNNh_-2" value="" style="shape=singleArrow;whiteSpace=wrap;html=1;" vertex="1" parent="1">
          <mxGeometry x="580" y="250" width="40" height="20" as="geometry" />
        </mxCell>
        <mxCell id="phGdcPVQWKrGuyPVNNh_-3" value="fit" style="text;html=1;align=center;verticalAlign=middle;whiteSpace=wrap;rounded=0;" vertex="1" parent="1">
          <mxGeometry x="85" y="230" width="60" height="30" as="geometry" />
        </mxCell>
        <mxCell id="phGdcPVQWKrGuyPVNNh_-4" value="fit" style="text;html=1;align=center;verticalAlign=middle;whiteSpace=wrap;rounded=0;" vertex="1" parent="1">
          <mxGeometry x="570" y="230" width="60" height="30" as="geometry" />
        </mxCell>
        <mxCell id="phGdcPVQWKrGuyPVNNh_-5" value="Evaluate model performance using OOB error" style="rounded=0;whiteSpace=wrap;html=1;" vertex="1" parent="1">
          <mxGeometry x="609" y="360" width="120" height="60" as="geometry" />
        </mxCell>
        <mxCell id="phGdcPVQWKrGuyPVNNh_-6" value="" style="shape=singleArrow;whiteSpace=wrap;html=1;rotation=90;arrowWidth=0.3206896551724185;arrowSize=0.21906693711967176;" vertex="1" parent="1">
          <mxGeometry x="655" y="324" width="28" height="20" as="geometry" />
        </mxCell>
        <mxCell id="phGdcPVQWKrGuyPVNNh_-10" style="edgeStyle=orthogonalEdgeStyle;rounded=0;orthogonalLoop=1;jettySize=auto;html=1;exitX=0.234;exitY=1.017;exitDx=0;exitDy=0;exitPerimeter=0;dashed=1;" edge="1" parent="1" source="5yqSZOtJbwfrxuhBmMWn-58">
          <mxGeometry relative="1" as="geometry">
            <mxPoint x="480" y="340" as="targetPoint" />
            <mxPoint x="330" y="340" as="sourcePoint" />
            <Array as="points">
              <mxPoint x="300" y="340" />
              <mxPoint x="480" y="340" />
            </Array>
          </mxGeometry>
        </mxCell>
      </root>
    </mxGraphModel>
  </diagram>
</mxfile>
